PathFileType	4	(X/Y/Z)	 2.2Hz3min.trc
DataRate	CameraRate	NumFrames	NumMarkers	Units	OrigDataRate	OrigDataStartFrame	OrigNumFrames
200	200	9	43	m	200	376	1000
Frame#	Time	C7			LSH			RSH			MAN			RASI			LASI			HIPR			HIPL			RPSI			LPSI			COX			RTHI1			RTHI2			RTHI3			RTHI4			RLKN			RMKN			RSHA1			RSHA2			RSHA3			RSHA4			RLMAL			RMMAL			RHEEL			RMET5			RMET1			RTOE			LTHI1			LTHI2			LTHI3			LTHI4			LLKN			LMKN			LSHA1			LSHA2			LSHA3			LSHA4			LLMAL			LMMAL			LHEEL			LMET5			LMET1			LTOE			
		X1	Y1	Z1	X2	Y2	Z2	X3	Y3	Z3	X4	Y4	Z4	X5	Y5	Z5	X6	Y6	Z6	X7	Y7	Z7	X8	Y8	Z8	X9	Y9	Z9	X10	Y10	Z10	X11	Y11	Z11	X12	Y12	Z12	X13	Y13	Z13	X14	Y14	Z14	X15	Y15	Z15	X16	Y16	Z16	X17	Y17	Z17	X18	Y18	Z18	X19	Y19	Z19	X20	Y20	Z20	X21	Y21	Z21	X22	Y22	Z22	X23	Y23	Z23	X24	Y24	Z24	X25	Y25	Z25	X26	Y26	Z26	X27	Y27	Z27	X28	Y28	Z28	X29	Y29	Z29	X30	Y30	Z30	X31	Y31	Z31	X32	Y32	Z32	X33	Y33	Z33	X34	Y34	Z34	X35	Y35	Z35	X36	Y36	Z36	X37	Y37	Z37	X38	Y38	Z38	X39	Y39	Z39	X40	Y40	Z40	X41	Y41	Z41	X42	Y42	Z42	X43	Y43	Z43	
376	1.8800	-0.253960	1.453361	-0.559823	-0.174301	1.432924	-0.703401	-0.188800	1.434458	-0.399662	-0.134900	1.391208	-0.549457	-0.114696	0.954875	-0.427797	-0.118584	0.962330	-0.654339	-0.170341	1.034776	-0.396177	-0.181270	1.019648	-0.689183	-0.273287	1.023051	-0.485505	-0.278404	1.019998	-0.570795	-0.279694	1.020772	-0.533102	-0.249604	0.791546	-0.358920	-0.235546	0.734119	-0.351525	-0.172770	0.745542	-0.342329	-0.178588	0.806992	-0.348594	-0.220021	0.547073	-0.353315	-0.200189	0.516039	-0.482692	-0.300817	0.419986	-0.338478	-0.303625	0.378391	-0.348990	-0.246335	0.413877	-0.324614	-0.246129	0.374455	-0.329131	-0.284051	0.173924	-0.347005	-0.251228	0.179229	-0.423265	-0.332527	0.174333	-0.396681	-0.214768	0.080431	-0.315790	-0.173901	0.072921	-0.379316	-0.156412	0.058264	-0.371858	-0.227003	0.791514	-0.728830	-0.208724	0.733156	-0.737340	-0.145104	0.746834	-0.735949	-0.155693	0.805442	-0.728624	-0.194664	0.542835	-0.739222	-0.172570	0.521758	-0.615844	-0.282685	0.392234	-0.752028	-0.290337	0.352645	-0.744593	-0.230840	0.344681	-0.757342	-0.230249	0.388185	-0.764526	-0.277051	0.186431	-0.750665	-0.257357	0.197312	-0.670055	-0.336385	0.191732	-0.699785	-0.225172	0.092328	-0.764592	-0.190154	0.082356	-0.697821	-0.173410	0.062597	-0.702166	
377	1.8850	-0.253279	1.454247	-0.559631	-0.173639	1.433546	-0.703561	-0.188129	1.435128	-0.399281	-0.134264	1.392033	-0.549296	-0.114733	0.955576	-0.427804	-0.118528	0.963132	-0.654296	-0.170183	1.035522	-0.396214	-0.181151	1.020485	-0.689027	-0.273177	1.023914	-0.485396	-0.278310	1.020915	-0.570680	-0.279614	1.021708	-0.532995	-0.249749	0.792144	-0.359076	-0.235566	0.734785	-0.351548	-0.172861	0.746373	-0.342059	-0.178815	0.807792	-0.348434	-0.219555	0.547791	-0.353195	-0.199345	0.516778	-0.482492	-0.300581	0.420823	-0.338598	-0.303414	0.379227	-0.349113	-0.246126	0.414669	-0.324640	-0.245880	0.375278	-0.329188	-0.283494	0.174469	-0.347023	-0.250707	0.179995	-0.423320	-0.332089	0.174180	-0.396783	-0.213002	0.082161	-0.315691	-0.172051	0.075048	-0.379058	-0.154323	0.060624	-0.371551	-0.226965	0.792311	-0.728838	-0.208554	0.733984	-0.737356	-0.144963	0.747835	-0.736025	-0.155694	0.806422	-0.728718	-0.194246	0.543648	-0.739077	-0.171735	0.522623	-0.615735	-0.282061	0.392924	-0.751755	-0.289648	0.353320	-0.744354	-0.230132	0.345452	-0.757135	-0.229619	0.388985	-0.764289	-0.275764	0.187004	-0.750419	-0.255873	0.197909	-0.669880	-0.335027	0.191696	-0.699244	-0.223141	0.093636	-0.764871	-0.187675	0.083863	-0.698387	-0.170694	0.064344	-0.702963	
378	1.8900	-0.252590	1.454912	-0.559434	-0.172976	1.433934	-0.703728	-0.187430	1.435549	-0.398909	-0.133615	1.392608	-0.549134	-0.114810	0.956067	-0.427817	-0.118483	0.963701	-0.654278	-0.170100	1.036032	-0.396273	-0.181052	1.021067	-0.688885	-0.273119	1.024467	-0.485333	-0.278253	1.021509	-0.570616	-0.279583	1.022344	-0.532929	-0.249856	0.792483	-0.359192	-0.235522	0.735191	-0.351513	-0.172893	0.746992	-0.341775	-0.179010	0.808367	-0.348274	-0.219045	0.548324	-0.353025	-0.198466	0.517358	-0.482260	-0.300348	0.421487	-0.338720	-0.303218	0.379893	-0.349252	-0.245925	0.415283	-0.324661	-0.245687	0.375913	-0.329230	-0.282946	0.174837	-0.346985	-0.250191	0.180579	-0.423331	-0.331664	0.173833	-0.396831	-0.211286	0.083709	-0.315578	-0.170281	0.076983	-0.378835	-0.152336	0.062762	-0.371253	-0.226954	0.792819	-0.728845	-0.208403	0.734534	-0.737381	-0.144844	0.748563	-0.736120	-0.155732	0.807127	-0.728844	-0.193867	0.544234	-0.738930	-0.170967	0.523248	-0.615628	-0.281464	0.393376	-0.751450	-0.288965	0.353752	-0.744095	-0.229445	0.346000	-0.756960	-0.229030	0.389566	-0.764060	-0.274478	0.187365	-0.750226	-0.254341	0.198273	-0.669765	-0.333634	0.191423	-0.698739	-0.221114	0.094751	-0.765280	-0.185168	0.085148	-0.699093	-0.167979	0.065887	-0.703895	
379	1.8950	-0.251892	1.455369	-0.559224	-0.172312	1.434090	-0.703890	-0.186700	1.435729	-0.398545	-0.132953	1.392930	-0.548970	-0.114924	0.956345	-0.427834	-0.118445	0.964032	-0.654279	-0.170092	1.036304	-0.396352	-0.180965	1.021396	-0.688754	-0.273113	1.024728	-0.485326	-0.278233	1.021791	-0.570599	-0.279600	1.022684	-0.532906	-0.249929	0.792577	-0.359268	-0.235431	0.735354	-0.351422	-0.172879	0.747386	-0.341481	-0.179169	0.808719	-0.348114	-0.218538	0.548672	-0.352819	-0.197584	0.517772	-0.482017	-0.300109	0.421962	-0.338821	-0.303025	0.380389	-0.349353	-0.245738	0.415700	-0.324668	-0.245513	0.376341	-0.329236	-0.282406	0.175031	-0.346889	-0.249684	0.180972	-0.423302	-0.331262	0.173304	-0.396822	-0.209613	0.085043	-0.315406	-0.168571	0.078715	-0.378624	-0.150426	0.064772	-0.370989	-0.226969	0.793043	-0.728852	-0.208271	0.734808	-0.737406	-0.144745	0.749007	-0.736232	-0.155796	0.807554	-0.728997	-0.193528	0.544594	-0.738789	-0.170272	0.523647	-0.615528	-0.280893	0.393580	-0.751115	-0.288280	0.353942	-0.743814	-0.228781	0.346342	-0.756822	-0.228482	0.389921	-0.763842	-0.273205	0.187506	-0.750085	-0.252797	0.198405	-0.669696	-0.332222	0.190913	-0.698282	-0.219093	0.095672	-0.765781	-0.182640	0.086245	-0.699964	-0.165254	0.067277	-0.704962	
380	1.9000	-0.251190	1.455603	-0.559008	-0.171639	1.434023	-0.704029	-0.185944	1.435665	-0.398197	-0.132265	1.393002	-0.548800	-0.115075	0.956403	-0.427852	-0.118415	0.964122	-0.654296	-0.170148	1.036335	-0.396446	-0.180886	1.021479	-0.688633	-0.273157	1.024696	-0.485365	-0.278249	1.021756	-0.570627	-0.279664	1.022745	-0.532921	-0.249974	0.792433	-0.359304	-0.235299	0.735277	-0.351304	-0.172828	0.747553	-0.341186	-0.179299	0.808846	-0.347959	-0.218039	0.548826	-0.352593	-0.196733	0.518002	-0.481763	-0.299865	0.422231	-0.338893	-0.302843	0.380655	-0.349438	-0.245533	0.415920	-0.324633	-0.245345	0.376549	-0.329202	-0.281886	0.175041	-0.346744	-0.249206	0.181160	-0.423232	-0.330882	0.172585	-0.396745	-0.207972	0.086152	-0.315187	-0.166940	0.080215	-0.378431	-0.148603	0.066552	-0.370743	-0.227005	0.792985	-0.728857	-0.208157	0.734805	-0.737433	-0.144663	0.749171	-0.736365	-0.155879	0.807711	-0.729169	-0.193222	0.544727	-0.738661	-0.169644	0.523824	-0.615438	-0.280349	0.393549	-0.750762	-0.287605	0.353882	-0.743529	-0.228134	0.346460	-0.756734	-0.227976	0.390050	-0.763649	-0.271943	0.187423	-0.749993	-0.251230	0.198314	-0.669677	-0.330793	0.190152	-0.697858	-0.217069	0.096375	-0.766344	-0.180135	0.087113	-0.700894	-0.162567	0.068449	-0.706115	
381	1.9050	-0.250496	1.455594	-0.558804	-0.170938	1.433738	-0.704122	-0.185167	1.435368	-0.397866	-0.131551	1.392824	-0.548619	-0.115264	0.956235	-0.427869	-0.118391	0.963972	-0.654324	-0.170262	1.036118	-0.396547	-0.180806	1.021320	-0.688525	-0.273252	1.024385	-0.485445	-0.278298	1.021422	-0.570695	-0.279774	1.022538	-0.532971	-0.250005	0.792060	-0.359301	-0.235147	0.734967	-0.351161	-0.172753	0.747494	-0.340897	-0.179411	0.808751	-0.347812	-0.217580	0.548756	-0.352371	-0.195925	0.518028	-0.481505	-0.299609	0.422285	-0.338923	-0.302663	0.380688	-0.349486	-0.245315	0.415919	-0.324557	-0.245177	0.376525	-0.329109	-0.281384	0.174855	-0.346573	-0.248763	0.181134	-0.423128	-0.330522	0.171697	-0.396605	-0.206409	0.087019	-0.314957	-0.165418	0.081456	-0.378220	-0.146871	0.068152	-0.370504	-0.227054	0.792652	-0.728858	-0.208058	0.734527	-0.737458	-0.144593	0.749059	-0.736523	-0.155975	0.807589	-0.729352	-0.192935	0.544629	-0.738555	-0.169083	0.523778	-0.615363	-0.279830	0.393283	-0.750403	-0.286946	0.353596	-0.743244	-0.227509	0.346353	-0.756695	-0.227510	0.389963	-0.763491	-0.270692	0.187120	-0.749942	-0.249653	0.198013	-0.669708	-0.329376	0.189182	-0.697480	-0.215072	0.096853	-0.766955	-0.177650	0.087757	-0.701852	-0.159897	0.069389	-0.707297	
382	1.9100	-0.249805	1.455330	-0.558603	-0.170210	1.433228	-0.704163	-0.184366	1.434842	-0.397551	-0.130820	1.392392	-0.548430	-0.115492	0.955831	-0.427880	-0.118372	0.963575	-0.654357	-0.170425	1.035651	-0.396651	-0.180727	1.020918	-0.688429	-0.273397	1.023817	-0.485563	-0.278377	1.020805	-0.570799	-0.279931	1.022076	-0.533058	-0.250032	0.791461	-0.359267	-0.234989	0.734423	-0.350984	-0.172668	0.747208	-0.340615	-0.179518	0.808430	-0.347672	-0.217155	0.548463	-0.352161	-0.195167	0.517828	-0.481250	-0.299338	0.422093	-0.338899	-0.302471	0.380482	-0.349472	-0.245076	0.415679	-0.324439	-0.244983	0.376263	-0.328955	-0.280926	0.174480	-0.346392	-0.248360	0.180874	-0.422987	-0.330193	0.170634	-0.396415	-0.204935	0.087688	-0.314687	-0.163997	0.082469	-0.378006	-0.145231	0.069509	-0.370249	-0.227110	0.792048	-0.728855	-0.207965	0.733984	-0.737483	-0.144536	0.748676	-0.736706	-0.156079	0.807192	-0.729537	-0.192660	0.544296	-0.738475	-0.168574	0.523506	-0.615310	-0.279335	0.392796	-0.750051	-0.286308	0.353069	-0.742974	-0.226923	0.346032	-0.756714	-0.227078	0.389665	-0.763382	-0.269457	0.186597	-0.749936	-0.248071	0.197498	-0.669774	-0.327983	0.188016	-0.697172	-0.213116	0.097099	-0.767606	-0.175210	0.088166	-0.702827	-0.157304	0.070084	-0.708484	
383	1.9150	-0.249120	1.454806	-0.558408	-0.169453	1.432492	-0.704153	-0.183557	1.434089	-0.397252	-0.130071	1.391694	-0.548233	-0.115757	0.955186	-0.427883	-0.118357	0.962923	-0.654386	-0.170636	1.034929	-0.396753	-0.180648	1.020266	-0.688345	-0.273590	1.022990	-0.485708	-0.278491	1.019914	-0.570928	-0.280135	1.021370	-0.533176	-0.250069	0.790639	-0.359210	-0.234836	0.733665	-0.350792	-0.172583	0.746683	-0.340347	-0.179628	0.807878	-0.347540	-0.216747	0.547922	-0.351966	-0.194470	0.517378	-0.481002	-0.299038	0.421650	-0.338818	-0.302243	0.380017	-0.349361	-0.244802	0.415184	-0.324271	-0.244760	0.375739	-0.328741	-0.280491	0.173869	-0.346198	-0.247999	0.180369	-0.422813	-0.329889	0.169403	-0.396160	-0.203553	0.088105	-0.314413	-0.162661	0.083242	-0.377755	-0.143687	0.070664	-0.370004	-0.227168	0.791174	-0.728849	-0.207881	0.733167	-0.737511	-0.144485	0.748023	-0.736906	-0.156182	0.806524	-0.729717	-0.192383	0.543720	-0.738427	-0.168105	0.523016	-0.615285	-0.278857	0.392078	-0.749714	-0.285674	0.352297	-0.742715	-0.226353	0.345494	-0.756784	-0.226669	0.389142	-0.763328	-0.268242	0.185847	-0.749965	-0.246517	0.196771	-0.669866	-0.326619	0.186655	-0.696930	-0.211205	0.097107	-0.768250	-0.172866	0.088331	-0.703793	-0.154791	0.070568	-0.709656	
384	1.9200	-0.248433	1.454014	-0.558214	-0.168658	1.431540	-0.704084	-0.182747	1.433110	-0.396970	-0.129262	1.390792	-0.548010	-0.116057	0.954294	-0.427878	-0.118351	0.962017	-0.654410	-0.170886	1.033948	-0.396845	-0.180569	1.019364	-0.688274	-0.273827	1.021906	-0.485873	-0.278641	1.018764	-0.571077	-0.280381	1.020438	-0.533321	-0.250119	0.789590	-0.359132	-0.234692	0.732685	-0.350599	-0.172504	0.745935	-0.340096	-0.179753	0.807097	-0.347418	-0.216311	0.547130	-0.351774	-0.193843	0.516661	-0.480751	-0.298696	0.420944	-0.338682	-0.301953	0.379285	-0.349173	-0.244474	0.414433	-0.324055	-0.244514	0.374950	-0.328469	-0.280071	0.173009	-0.345981	-0.247685	0.179609	-0.422611	-0.329602	0.167996	-0.395847	-0.202284	0.088230	-0.314129	-0.161452	0.083743	-0.377498	-0.142298	0.071488	-0.369713	-0.227221	0.790041	-0.728842	-0.207795	0.732084	-0.737551	-0.144434	0.747113	-0.737122	-0.156282	0.805588	-0.729891	-0.192092	0.542896	-0.738410	-0.167654	0.522292	-0.615291	-0.278383	0.391135	-0.749401	-0.285049	0.351300	-0.742484	-0.225782	0.344710	-0.756907	-0.226267	0.388385	-0.763332	-0.267045	0.184870	-0.750027	-0.245000	0.195823	-0.669990	-0.325284	0.185113	-0.696750	-0.209352	0.096814	-0.768855	-0.170648	0.088185	-0.704661	-0.152421	0.070749	-0.710756	
